<?xml version="1.0" encoding="utf-8"?>
<!-- Generator: Adobe Illustrator 16.0.0, SVG Export Plug-In . SVG Version: 6.00 Build 0)  -->
<!DOCTYPE svg PUBLIC "-//W3C//DTD SVG 1.1//EN" "http://www.w3.org/Graphics/SVG/1.1/DTD/svg11.dtd">
<svg version="1.1" id="Calque_1" xmlns="http://www.w3.org/2000/svg" xmlns:xlink="http://www.w3.org/1999/xlink" x="0px" y="0px" width="10.658px" height="16.654px" viewBox="0.066 0.896 10.658 16.654" enable-background="new 0.066 0.896 10.658 16.654" xml:space="preserve">
<style type="text/css" >
  <![CDATA[

    #FACEBOOK {
       fill: #db235C;
       cursor:pointer;
    }

    #FACEBOOK:hover {
       fill: #44362d;
    }
  ]]>
</style>

<g id="FACEBOOK">
  <rect opacity="0" x="vx" y="vy" width="100%" height="100%"></rect>
  <path d="M0.066,6.256H2.38V5.253c0-1.109,0.141-1.952,0.426-2.502c0.281-0.553,0.8-1.002,1.561-1.346 c0.757-0.348,1.712-0.509,2.869-0.509c1.187,0,2.354,0.146,3.488,0.44l-0.562,2.452C9.501,3.654,8.86,3.586,8.245,3.586 c-0.602,0-1.039,0.121-1.297,0.361C6.683,4.187,6.556,4.64,6.556,5.311v0.944h3.117v2.762H6.556v8.533H2.38V9.017H0.066V6.256z"/>
</g>
</svg>
