<?xml version="1.0" encoding="utf-8"?>
<!-- Generator: Adobe Illustrator 16.0.0, SVG Export Plug-In . SVG Version: 6.00 Build 0)  -->
<!DOCTYPE svg PUBLIC "-//W3C//DTD SVG 1.1//EN" "http://www.w3.org/Graphics/SVG/1.1/DTD/svg11.dtd">
<svg version="1.1" id="Calque_1" xmlns="http://www.w3.org/2000/svg" xmlns:xlink="http://www.w3.org/1999/xlink" x="0px" y="0px" width="16.172px" height="15.748px" viewBox="0.634 0.284 16.172 15.748" enable-background="new 0.634 0.284 16.172 15.748" xml:space="preserve">
<style type="text/css" >
  <![CDATA[

    #INSTAGRAM {
       fill: #db235C;
       cursor:pointer;
    }

    #INSTAGRAM:hover {
       fill: #44362d;
    }
  ]]>
</style>

<g id="INSTAGRAM">
  <rect opacity="0" x="vx" y="vy" width="100%" height="100%"></rect>
  <path d="M14.874,0.284H2.567c-1.613,0-1.933,0.285-1.933,1.856v12.034c0,1.571,0.32,1.857,1.933,1.857h12.307 c1.612,0,1.933-0.286,1.933-1.857V3.141C16.806,1.569,16.486,0.284,14.874,0.284z M11.97,2.497 c0.001-0.357,0.285-0.626,0.662-0.626c0.643-0.002,1.284-0.002,1.929,0c0.332,0,0.594,0.21,0.651,0.521 c0.006,0.034,0.007,0.066,0.007,0.1c0,0.615,0.002,1.229,0,1.843C15.218,4.645,15,4.892,14.679,4.948 c-0.04,0.007-0.083,0.007-0.125,0.007c-0.321,0.001-0.642,0.001-0.963,0.001c-0.32,0-0.643-0.003-0.964,0.002 c-0.288,0.003-0.6-0.195-0.653-0.538c-0.003-0.029-0.004-0.058-0.004-0.088C11.97,3.722,11.969,3.108,11.97,2.497z M8.719,4.956c1.796,0,3.251,1.383,3.251,3.089c0,1.704-1.453,3.083-3.251,3.083c-1.797,0-3.245-1.376-3.249-3.085 C5.467,6.367,6.897,4.959,8.719,4.956z M15.219,6.895c0,1.828,0,3.657,0,5.487c0,0.403,0.002,0.81,0,1.215 c-0.001,0.299-0.209,0.544-0.518,0.606c-0.06,0.011-0.123,0.014-0.183,0.014c-1.868,0-3.734,0-5.6,0c-1.997,0-3.996,0-5.993,0 c-0.087,0-0.171-0.006-0.254-0.03c-0.252-0.077-0.428-0.285-0.449-0.535c-0.003-0.033-0.003-0.067-0.003-0.1 c0-2.219,0-4.438,0-6.658c0-0.025,0-0.051,0-0.082c0.494,0,0.978,0,1.466,0c-0.333,1.282-0.172,2.504,0.503,3.655 c0.481,0.82,1.163,1.455,2.028,1.906c0.856,0.449,1.779,0.656,2.754,0.603c1.63-0.091,2.939-0.77,3.935-2 c0.948-1.264,1.227-2.651,0.851-4.161c0.484,0,0.97,0,1.462,0C15.219,6.842,15.219,6.868,15.219,6.895z"/>
</g>
</svg>
