<?xml version="1.0" encoding="utf-8"?>
<!-- Generator: Adobe Illustrator 16.0.0, SVG Export Plug-In . SVG Version: 6.00 Build 0)  -->
<!DOCTYPE svg PUBLIC "-//W3C//DTD SVG 1.1//EN" "http://www.w3.org/Graphics/SVG/1.1/DTD/svg11.dtd">
<svg version="1.1" id="Calque_1" xmlns="http://www.w3.org/2000/svg" xmlns:xlink="http://www.w3.org/1999/xlink" x="0px" y="0px" width="23.07px" height="16.888px" viewBox="0.164 0.518 23.07 16.888" enable-background="new 0.164 0.518 23.07 16.888" xml:space="preserve">
<style type="text/css" >
  <![CDATA[

    #TWITTER {
       fill: #db235C;
       cursor:pointer;
    }

    #TWITTER:hover {
       fill: #44362d;
    }
  ]]>
</style>
  <g id="TWITTER">
    <rect opacity="0" x="vx" y="vy" width="100%" height="100%"></rect>
    <path d="M0.164,0.518l0.021,1.784l6.049,4.408c0,0-0.96,3.58,2.062,5.343c1.58,0.917,0.964,1.365,0.017,1.59 c-0.864,0.199-2.001,0.212-2.001,0.212l-0.98,1.797l2.003-0.018l1.021,1.771l-1.032-2.665c0,0-0.011-0.898,1.993-0.915 c2.002-0.016,0.038,3.572,0.038,3.572l0.982-1.791l3.02,1.755l-2.031-2.661l-0.018-1.782c0,0,8.005-0.074,7.947-5.43l0.99-0.903 l2.99-0.916l-3.012-0.868c0,0-0.029-2.681-3.008-0.866c-2.982,1.811-1.982,1.805-1.982,1.805s-5.011-0.853-6.015-0.841 C8.216,4.908,0.164,0.518,0.164,0.518z"/>
    <path d="M18.947,5.167c0.006,0.522-0.416,0.949-0.943,0.95c-0.531,0.006-0.959-0.412-0.967-0.935 c-0.004-0.514,0.416-0.945,0.943-0.951C18.508,4.23,18.939,4.65,18.947,5.167z"/>
  </g>
</svg>
